<?xml version="1.0" encoding="UTF-8" standalone="no"?>
<!-- Generator: Adobe Illustrator 24.2.1, SVG Export Plug-In . SVG Version: 6.00 Build 0)  -->

<svg
   version="1.1"
   id="Capa_1"
   x="0px"
   y="0px"
   viewBox="0 0 1417.32 1417.32"
   xml:space="preserve"
   sodipodi:docname="blanconegro2.svg"
   style="enable-background:new 0 0 1417.32 1417.32;"
   inkscape:version="1.1.2 (b8e25be833, 2022-02-05)"
   xmlns:inkscape="http://www.inkscape.org/namespaces/inkscape"
   xmlns:sodipodi="http://sodipodi.sourceforge.net/DTD/sodipodi-0.dtd"
   xmlns="http://www.w3.org/2000/svg"
   xmlns:svg="http://www.w3.org/2000/svg"><sodipodi:namedview
   id="namedview8"
   pagecolor="#ffffff"
   bordercolor="#666666"
   borderopacity="1.0"
   inkscape:pageshadow="2"
   inkscape:pageopacity="0.0"
   inkscape:pagecheckerboard="0"
   showgrid="false"
   inkscape:zoom="0.70710678"
   inkscape:cx="696.50018"
   inkscape:cy="704.27835"
   inkscape:window-width="1920"
   inkscape:window-height="1017"
   inkscape:window-x="-8"
   inkscape:window-y="-8"
   inkscape:window-maximized="1"
   inkscape:current-layer="Capa_1"
   lock-margins="true"
   fit-margin-top="10" /><defs
   id="defs11" />
<style
   type="text/css"
   id="style2">
	.st0{fill:#211915;}
</style>

<g
   id="g1044"
   transform="translate(4,62)"><path
     class="st0"
     d="m 817.19,248.81 c -31.44,97.16 -42.61,131.68 -42.61,131.68 0,0 -32.86,-13.31 -114.09,-4.37 -227.6,30.93 -298.66,361.27 -99.6,479.07 19.35,-59.81 61.86,-191.18 81.26,-251.13 -41.08,-13.29 -81.53,-26.38 -123.07,-39.82 13.53,-41.81 3.25,-10.04 16.69,-51.58 58.92,19.06 117.68,38.08 177.34,57.38 C 665.3,717.82 617.7,864.92 568.9,1015.73 88.07,821.82 317.47,123.5 817.19,248.81 Z"
     id="path4" /><path
     class="st0"
     d="m 838.01,356.69 c 468.01,207.99 213.07,895.38 -267.26,760.54 48.43,-149.68 96.13,-297.09 144.12,-445.38 55.9,18.09 111.84,36.19 168.57,54.54 -13.19,40.77 -2.8,8.67 -16.39,50.66 -37.97,-12.29 -75.93,-24.57 -114.7,-37.11 -19.84,61.32 -62.63,193.56 -82.25,254.18 24.76,1.97 81.46,3 140.82,-29.19 90.79,-49.24 118.37,-138.54 123.62,-156.91 8.84,-27.39 20.35,-77.22 7.48,-135.74 -28.4,-129.09 -150.13,-185.36 -165.81,-192.31 13.96,-43.14 27.96,-86.42 41.97,-129.7 6.6,2.14 13.21,4.28 19.83,6.42 z"
     id="path6" /></g>
</svg>
