<?xml version="1.0" encoding="utf-8"?>
<!-- Generator: Adobe Illustrator 24.2.1, SVG Export Plug-In . SVG Version: 6.00 Build 0)  -->
<svg version="1.1" id="Capa_1" xmlns="http://www.w3.org/2000/svg" xmlns:xlink="http://www.w3.org/1999/xlink" x="0px" y="0px"
	 viewBox="0 0 1417.32 1417.32" style="enable-background:new 0 0 1417.32 1417.32;" xml:space="preserve">
<style type="text/css">
	.st0{fill:#211915;}
</style>
<path class="st0" d="M817.19,248.81c-31.44,97.16-42.61,131.68-42.61,131.68s-32.86-13.31-114.09-4.37
	c-227.6,30.93-298.66,361.27-99.6,479.07c19.35-59.81,61.86-191.18,81.26-251.13c-41.08-13.29-81.53-26.38-123.07-39.82
	c13.53-41.81,3.25-10.04,16.69-51.58c58.92,19.06,117.68,38.08,177.34,57.38C665.3,717.82,617.7,864.92,568.9,1015.73
	C88.07,821.82,317.47,123.5,817.19,248.81z"/>
<path class="st0" d="M838.01,356.69c468.01,207.99,213.07,895.38-267.26,760.54c48.43-149.68,96.13-297.09,144.12-445.38
	c55.9,18.09,111.84,36.19,168.57,54.54c-13.19,40.77-2.8,8.67-16.39,50.66c-37.97-12.29-75.93-24.57-114.7-37.11
	c-19.84,61.32-62.63,193.56-82.25,254.18c24.76,1.97,81.46,3,140.82-29.19c90.79-49.24,118.37-138.54,123.62-156.91
	c8.84-27.39,20.35-77.22,7.48-135.74c-28.4-129.09-150.13-185.36-165.81-192.31c13.96-43.14,27.96-86.42,41.97-129.7
	C824.78,352.41,831.39,354.55,838.01,356.69z"/>
</svg>
